<?xml version="1.0" encoding="utf-8"?>
<!-- Generator: Adobe Illustrator 22.1.0, SVG Export Plug-In . SVG Version: 6.00 Build 0)  -->
<svg version="1.1" id="Calque_1" xmlns="http://www.w3.org/2000/svg" xmlns:xlink="http://www.w3.org/1999/xlink" x="0px" y="0px"
	 viewBox="0 0 413.1 142.1" preserveAspectRatio="none" style="enable-background:new 0 0 413.1 142.1;" xml:space="preserve">
<style type="text/css">
	.st0{fill:#FFFFFF;}
</style>
<g>
	<path class="st0" d="M225.1,21.3h-1.6v38.5h1.6c2.7,0,2.9-2.1,2.9-5.6V26.5C228,23,227.6,21.3,225.1,21.3z"/>
	<path class="st0" d="M225.1,74.6h-1.6v46.2h1.6c2.7,0,2.9-1.5,2.9-5V79.1C228,76.3,227.6,74.6,225.1,74.6z"/>
	<path class="st0" d="M280.2,22.3c-2,0-2.4,1.8-2.4,5.1v87.3c0,3.6,0.2,5.1,2.4,5.1c2,0,2.2-1.5,2.2-5.1V27.4
		C282.4,24.1,282,22.3,280.2,22.3z"/>
	<path class="st0" d="M79.4,22.3c-2,0-2.4,1.8-2.4,5.1v87.3c0,3.6,0.2,5.1,2.4,5.1c2,0,2.2-1.5,2.2-5.1V27.4
		C81.6,24.1,81.2,22.3,79.4,22.3z"/>
	<path class="st0" d="M0,0L0,142.1h413.1L413,0H0z M49.8,68.6H27.2V27.6c0-3.5-0.4-5.3-2.2-5.3c-2,0-2.4,1.8-2.4,5.3v87.1
		c0,3.5,0.4,5.1,2.4,5.1c1.8,0,2.2-1.6,2.2-5.1V72.8h22.6v39.4c0,23.7-9.5,29.8-25,29.8C8.9,142.1,0,135.8,0,112.3V29.9
		C0,6.2,8.9,0,24.8,0c15.5,0,25,6,25,29.9V68.6z M104.3,112.3c0,23.7-9.5,29.8-25,29.8c-15.9,0-24.8-6.2-24.8-29.8V29.8
		C54.4,6.2,63.4,0,79.2,0c15.5,0,25,6,25,29.8V112.3z M183.7,142.1h-28.7c-0.9-25.2-1.8-50.1-2.9-75.1h-0.4
		c-1.1,25-1.8,49.9-2.9,75.1h-28.7L107.6,19.4l0-19.4h23.2c1.3,29.5,2.4,58.9,3.7,88.4h0.4c1.8-29.5,3.8-58.9,5.7-88.4h23
		c2,29.5,3.8,58.9,5.7,88.4h0.5c1.3-29.5,2.2-58.9,3.5-88.4l23.1,0l0,19.4L183.7,142.1z M250.6,47.5c0,10.1-3.8,16.1-9.7,20.6
		c5.8,4.1,9.7,9.9,9.7,20v25.2c0,22.6-9.5,28.8-25,28.8h-24.8V0h24.8c15.5,0,25,8,25,27.1V47.5z M305,112.3c0,23.7-9.5,29.8-25,29.8
		c-15.9,0-24.8-6.2-24.8-29.8V29.8C255.2,6.2,264.1,0,280,0c15.5,0,25,6,25,29.8V112.3z M359.9,19.4l-13.7,76v46.7h-23.2V94.6
		l-13.7-75.2l0-19.4l21.6,0l3.7,58.3h0.4L338.3,0h21.6L359.9,19.4z M413.1,51.9h-22.6V29c0-3.6,0-6.8-2.2-6.8
		c-2.4,0-2.4,3.1-2.4,6.8v16.2c0,7.1,6.2,13,12.4,18.8c12.4,11.7,14.8,13.5,14.8,34.9v13.3c0,23.9-9.1,29.8-25,29.8
		c-15.3,0-24.8-5.8-24.8-29.8V90.2h22.6v24.1c0,4.6,0.4,5.5,2.4,5.5c1.6,0,2.2-0.9,2.2-5.5V95.9c0-9.1-7.3-15.3-13.5-21
		c-6.9-6.2-13.7-13.1-13.7-25.6V29.6C363.2,6.2,372.2,0,388,0c15.5,0,25,6,25,29.6V51.9z"/>
</g>
<g>
	<path d="M24.8,0.8c14.6,0,24.3,5,24.3,29.2v38H28V27.6c0-2.4,0-6-2.9-6c-3.1,0-3.1,3.5-3.1,6v87.1c0,2.5,0,5.9,3.1,5.9
		c2.9,0,2.9-3.4,2.9-5.9V73.6h21.1v38.7c0,11.1-2.1,18.7-6.5,23.3c-3.8,3.9-9.4,5.8-17.8,5.8c-14.5,0-24.1-4.9-24.1-29V29.9
		C0.8,5.7,10.4,0.8,24.8,0.8 M24.8,0C8.9,0,0,6.2,0,29.9v82.3c0,23.6,8.9,29.8,24.8,29.8c15.5,0,25-6,25-29.8V72.8H27.2v41.8
		c0,3.5-0.4,5.1-2.2,5.1c-2,0-2.4-1.6-2.4-5.1V27.6c0-3.5,0.4-5.3,2.4-5.3c1.8,0,2.2,1.8,2.2,5.3v41.1h22.6V29.9
		C49.8,6,40.4,0,24.8,0L24.8,0z"/>
</g>
<g>
	<path d="M79.2,0.8c8.4,0,14,1.8,17.8,5.8c4.4,4.5,6.5,12.1,6.5,23.3v82.5c0,11.1-2.1,18.7-6.5,23.3c-3.8,3.9-9.4,5.8-17.8,5.8
		c-14.5,0-24.1-4.9-24.1-29V29.8C55.2,5.7,64.8,0.8,79.2,0.8 M79.4,120.5c2.9,0,2.9-2.7,2.9-5.9V27.4c0-2.3,0-5.9-2.9-5.9
		c-3.1,0-3.1,3.5-3.1,5.9v87.3C76.3,117.8,76.3,120.5,79.4,120.5 M79.2,0C63.4,0,54.4,6.2,54.4,29.8v82.5c0,23.6,8.9,29.8,24.8,29.8
		c15.5,0,25-6,25-29.8V29.8C104.3,6,94.8,0,79.2,0L79.2,0z M79.4,119.8c-2.2,0-2.4-1.5-2.4-5.1V27.4c0-3.3,0.4-5.1,2.4-5.1
		c1.8,0,2.2,1.8,2.2,5.1v87.3C81.6,118.3,81.4,119.8,79.4,119.8L79.4,119.8z"/>
</g>
<g>
	<path d="M195.5,0.8l0,18.6l-12.5,122h-27.3c-0.9-25.2-1.8-49.9-2.9-74.4l0-0.7h-0.7h-0.4H151l0,0.7c-0.6,12.6-1,25.5-1.5,37.9
		c-0.4,11.9-0.9,24.3-1.4,36.6h-27.3l-12.5-122l0-18.6h21.8c0.6,14.5,1.2,29.3,1.8,43.5c0.6,14.5,1.2,29.4,1.8,44.2l0,0.7h0.7h0.4
		h0.7l0-0.7c0.9-14.8,1.9-29.8,2.8-44.2c0.9-14.2,1.9-28.9,2.8-43.5h21.6c1.9,28.2,3.6,55.3,5.6,87.7l0,0.7h0.7h0.5h0.7l0-0.7
		c0.6-14.8,1.2-29.9,1.7-44.4c0.5-14.2,1.1-28.8,1.7-43.2L195.5,0.8 M196.3,0l-23.1,0c-1.3,29.5-2.2,58.9-3.5,88.4h-0.5
		c-1.8-29.5-3.6-58.9-5.7-88.4h-23c-1.8,29.5-3.8,58.9-5.7,88.4h-0.4c-1.3-29.5-2.4-58.9-3.7-88.4h-23.2l0,19.4l12.6,122.7h28.7
		c1.1-25.2,1.8-50.1,2.9-75.1h0.4c1.1,25,2,49.9,2.9,75.1h28.7l12.6-122.7L196.3,0L196.3,0z"/>
</g>
<g>
	<path d="M225.6,0.8c16.1,0,24.3,8.9,24.3,26.3v20.4c0,8.8-2.9,15-9.4,20l-0.8,0.6l0.8,0.6c6.5,4.6,9.4,10.5,9.4,19.4v25.2
		c0,19.9-7,28-24.3,28h-24.1V0.8H225.6 M222.7,60.6h0.8h1.6c3.7,0,3.7-3.2,3.7-6.4V26.5c0-2.7,0-6-3.7-6h-1.6h-0.8v0.8v38.5V60.6
		 M222.7,121.5h0.8h1.6c3.7,0,3.7-2.7,3.7-5.8V79.1c0-2.1,0-5.2-3.7-5.2h-1.6h-0.8v0.8v46.2V121.5 M225.6,0h-24.8v142.1h24.8
		c15.5,0,25-6.2,25-28.8V88c0-10.1-3.8-15.9-9.7-20c5.8-4.5,9.7-10.5,9.7-20.6V27.1C250.6,8,241.1,0,225.6,0L225.6,0z M223.4,59.8
		V21.3h1.6c2.6,0,2.9,1.7,2.9,5.2v27.7c0,3.6-0.2,5.6-2.9,5.6H223.4L223.4,59.8z M223.4,120.7V74.6h1.6c2.6,0,2.9,1.7,2.9,4.5v36.6
		c0,3.6-0.2,5-2.9,5H223.4L223.4,120.7z"/>
</g>
<g>
	<path d="M280,0.8c8.4,0,14,1.8,17.8,5.8c4.4,4.5,6.5,12.1,6.5,23.3v82.5c0,11.1-2.1,18.7-6.5,23.3c-3.8,3.9-9.4,5.8-17.8,5.8
		c-14.5,0-24.1-4.9-24.1-29V29.8C255.9,5.7,265.6,0.8,280,0.8 M280.2,120.5c2.9,0,2.9-2.7,2.9-5.9V27.4c0-2.3,0-5.9-2.9-5.9
		c-3.1,0-3.1,3.5-3.1,5.9v87.3C277.1,117.8,277.1,120.5,280.2,120.5 M280,0c-15.9,0-24.8,6.2-24.8,29.8v82.5
		c0,23.6,8.9,29.8,24.8,29.8c15.5,0,25-6,25-29.8V29.8C305,6,295.5,0,280,0L280,0z M280.2,119.8c-2.2,0-2.4-1.5-2.4-5.1V27.4
		c0-3.3,0.4-5.1,2.4-5.1c1.8,0,2.2,1.8,2.2,5.1v87.3C282.4,118.3,282.2,119.8,280.2,119.8L280.2,119.8z"/>
</g>
<g>
	<path d="M309.9,0.8l20.1,0l3.6,57.6l0,0.7h0.7h0.4h0.7l0-0.7L339,0.8h20.2l0,18.5l-13.7,75.9l0,0.1v0.1v46h-21.7V94.6v-0.1l0-0.1
		l-13.7-75.1L309.9,0.8 M309.2,0l0,19.4l13.7,75.2v47.5h23.2V95.3l13.7-76l0-19.4h-21.6l-3.5,58.3h-0.4L330.8,0L309.2,0L309.2,0z"/>
</g>
<g>
	<path d="M388,0.8c8.3,0,14,1.8,17.8,5.7c4.4,4.5,6.5,12.1,6.5,23.1v21.5h-21.1V29c0-3.9,0-7.5-2.9-7.5c-3.1,0-3.1,3.6-3.1,7.5v16.2
		c0,7.4,6.4,13.5,12.7,19.4l0.7,0.6c11.8,11.1,13.9,13,13.9,33.7v13.3c0,11.2-2.1,18.9-6.3,23.3c-3.8,3.9-9.3,5.7-17.9,5.7
		c-14.5,0-24.1-4.9-24.1-29V90.9h21.1v23.3c0,4,0.1,6.2,3.1,6.2c2.5,0,2.9-1.9,2.9-6.2V95.9c0-9.1-6.9-15.3-12.9-20.8l-0.8-0.8
		c-7.1-6.3-13.4-13-13.4-25V29.6C364,5.7,373.6,0.8,388,0.8 M388,0c-15.9,0-24.8,6.2-24.8,29.6v19.7c0,12.4,6.8,19.4,13.7,25.6
		c6.2,5.7,13.5,11.9,13.5,21v18.4c0,4.6-0.5,5.5-2.2,5.5c-2,0-2.4-0.9-2.4-5.5V90.2h-22.6v22.1c0,23.9,9.5,29.8,24.8,29.8
		c15.9,0,25-5.8,25-29.8V99c0-21.4-2.4-23.2-14.8-34.9c-6.2-5.8-12.4-11.7-12.4-18.8V29c0-3.6,0-6.8,2.4-6.8c2.2,0,2.2,3.1,2.2,6.8
		v22.8h22.6V29.6C413.1,6,403.6,0,388,0L388,0z"/>
</g>
</svg>
