<?xml version="1.0" encoding="utf-8"?>
<!-- Generator: Adobe Illustrator 22.1.0, SVG Export Plug-In . SVG Version: 6.00 Build 0)  -->
<svg version="1.1" id="Calque_1" xmlns="http://www.w3.org/2000/svg" xmlns:xlink="http://www.w3.org/1999/xlink" x="0px" y="0px"
	 viewBox="0 0 462 180.5" preserveAspectRatio="none" style="enable-background:new 0 0 462 180.5;" xml:space="preserve">
<style type="text/css">
	.st0{fill:#dddddd;}
	.st1{fill:none;stroke:#000000;stroke-miterlimit:10;}
</style>
<g>
	<path class="st0" d="M249.5,93.7h-1.6v46.2h1.6c2.7,0,2.9-1.5,2.9-5V98.2C252.5,95.4,252.1,93.7,249.5,93.7z"/>
	<path class="st0" d="M249.5,40.4h-1.6v38.5h1.6c2.7,0,2.9-2.1,2.9-5.6V45.7C252.5,42.1,252.1,40.4,249.5,40.4z"/>
	<path class="st0" d="M103.9,41.4c-2,0-2.4,1.8-2.4,5.1v87.3c0,3.6,0.2,5.1,2.4,5.1c2,0,2.2-1.5,2.2-5.1V46.5
		C106.1,43.2,105.7,41.4,103.9,41.4z"/>
	<path class="st0" d="M304.7,41.4c-2,0-2.4,1.8-2.4,5.1v87.3c0,3.6,0.2,5.1,2.4,5.1c2,0,2.2-1.5,2.2-5.1V46.5
		C306.9,43.2,306.5,41.4,304.7,41.4z"/>
	<path class="st0" d="M0,0v180.5h462V0H0z M74.3,87.8H51.7V46.7c0-3.5-0.4-5.3-2.2-5.3c-2,0-2.4,1.8-2.4,5.3v87.1
		c0,3.5,0.4,5.1,2.4,5.1c1.8,0,2.2-1.6,2.2-5.1V92h22.6v39.4c0,23.7-9.5,29.8-25,29.8c-15.9,0-24.8-6.2-24.8-29.8V49.1
		c0-23.7,8.9-29.9,24.8-29.9c15.5,0,25,6,25,29.9V87.8z M128.7,131.4c0,23.7-9.5,29.8-25,29.8c-15.9,0-24.8-6.2-24.8-29.8V48.9
		c0-23.6,8.9-29.8,24.8-29.8c15.5,0,25,6,25,29.8V131.4z M208.2,161.2h-28.7c-0.9-25.2-1.8-50.1-2.9-75.1h-0.4
		c-1.1,25-1.8,49.9-2.9,75.1h-28.7L132,38.5l0-19.4h23.2c1.3,29.5,2.4,58.9,3.7,88.4h0.4c1.8-29.5,3.8-58.9,5.7-88.4h23
		c2,29.5,3.8,58.9,5.7,88.4h0.5c1.3-29.5,2.2-58.9,3.5-88.4l23.1,0l0,19.4L208.2,161.2z M275.1,66.6c0,10.1-3.8,16.1-9.7,20.6
		c5.8,4.1,9.7,9.9,9.7,20v25.2c0,22.6-9.5,28.8-25,28.8h-24.8V19.1h24.8c15.5,0,25,8,25,27.1V66.6z M329.5,131.4
		c0,23.7-9.5,29.8-25,29.8c-15.9,0-24.8-6.2-24.8-29.8V48.9c0-23.6,8.9-29.8,24.8-29.8c15.5,0,25,6,25,29.8V131.4z M384.3,38.5
		l-13.7,76v46.7h-23.2v-47.5l-13.7-75.2l0-19.4l21.6,0l3.7,58.3h0.4l3.5-58.3h21.6L384.3,38.5z M437.5,71h-22.6V48.1
		c0-3.6,0-6.8-2.2-6.8c-2.4,0-2.4,3.1-2.4,6.8v16.2c0,7.1,6.2,13,12.4,18.8c12.4,11.7,14.8,13.5,14.8,34.9v13.3
		c0,23.9-9.1,29.8-25,29.8c-15.3,0-24.8-5.8-24.8-29.8v-22.1h22.6v24.1c0,4.6,0.4,5.5,2.4,5.5c1.6,0,2.2-0.9,2.2-5.5V115
		c0-9.1-7.3-15.3-13.5-21c-6.9-6.2-13.7-13.1-13.7-25.6V48.7c0-23.4,8.9-29.6,24.8-29.6c15.5,0,25,6,25,29.6V71z"/>
</g>
<g>
	<path class="st1" d="M51.7,87.8V46.7c0-3.5-0.4-5.3-2.2-5.3c-2,0-2.4,1.8-2.4,5.3v87.1c0,3.5,0.4,5.1,2.4,5.1
		c1.8,0,2.2-1.6,2.2-5.1V92h22.6v39.4c0,23.7-9.5,29.8-25,29.8c-15.9,0-24.8-6.2-24.8-29.8V49.1c0-23.7,8.9-29.9,24.8-29.9
		c15.5,0,25,6,25,29.9v38.7H51.7z"/>
	<path class="st1" d="M128.7,48.9v82.5c0,23.7-9.5,29.8-25,29.8c-15.9,0-24.8-6.2-24.8-29.8V48.9c0-23.6,8.9-29.8,24.8-29.8
		C119.2,19.1,128.7,25.1,128.7,48.9z M106.1,133.8V46.5c0-3.3-0.4-5.1-2.2-5.1c-2,0-2.4,1.8-2.4,5.1v87.3c0,3.6,0.2,5.1,2.4,5.1
		C105.9,138.9,106.1,137.4,106.1,133.8z"/>
	<path class="st1" d="M176.2,86c-1.1,25-1.8,49.9-2.9,75.1h-28.7L132,38.5l0-19.4h23.2c1.3,29.5,2.4,58.9,3.7,88.4h0.4
		c1.8-29.5,3.8-58.9,5.7-88.4h23c2,29.5,3.8,58.9,5.7,88.4h0.5c1.3-29.5,2.2-58.9,3.5-88.4l23.1,0l0,19.4l-12.6,122.7h-28.7
		c-0.9-25.2-1.8-50.1-2.9-75.1H176.2z"/>
	<path class="st1" d="M225.3,19.1h24.8c15.5,0,25,8,25,27.1v20.4c0,10.1-3.8,16.1-9.7,20.6c5.8,4.1,9.7,9.9,9.7,20v25.2
		c0,22.6-9.5,28.8-25,28.8h-24.8V19.1z M249.5,78.9c2.7,0,2.9-2.1,2.9-5.6V45.7c0-3.6-0.4-5.2-2.9-5.2h-1.6v38.5H249.5z
		 M249.5,139.9c2.7,0,2.9-1.5,2.9-5V98.2c0-2.8-0.4-4.5-2.9-4.5h-1.6v46.2H249.5z"/>
	<path class="st1" d="M329.5,48.9v82.5c0,23.7-9.5,29.8-25,29.8c-15.9,0-24.8-6.2-24.8-29.8V48.9c0-23.6,8.9-29.8,24.8-29.8
		C320,19.1,329.5,25.1,329.5,48.9z M306.9,133.8V46.5c0-3.3-0.4-5.1-2.2-5.1c-2,0-2.4,1.8-2.4,5.1v87.3c0,3.6,0.2,5.1,2.4,5.1
		C306.7,138.9,306.9,137.4,306.9,133.8z"/>
	<path class="st1" d="M347.4,113.7l-13.7-75.2l0-19.4l21.6,0l3.7,58.3h0.4l3.5-58.3h21.6l0,19.4l-13.7,76v46.7h-23.2V113.7z"/>
	<path class="st1" d="M414.9,71V48.1c0-3.6,0-6.8-2.2-6.8c-2.4,0-2.4,3.1-2.4,6.8v16.2c0,7.1,6.2,13,12.4,18.8
		c12.4,11.7,14.8,13.5,14.8,34.9v13.3c0,23.9-9.1,29.8-25,29.8c-15.3,0-24.8-5.8-24.8-29.8v-22.1h22.6v24.1c0,4.6,0.4,5.5,2.4,5.5
		c1.6,0,2.2-0.9,2.2-5.5V115c0-9.1-7.3-15.3-13.5-21c-6.9-6.2-13.7-13.1-13.7-25.6V48.7c0-23.4,8.9-29.6,24.8-29.6
		c15.5,0,25,6,25,29.6V71H414.9z"/>
</g>
</svg>
